<svg width="38" height="35" viewBox="0 0 38 35" fill="none" xmlns="http://www.w3.org/2000/svg">
<g clip-path="url(#clip0_2_2471)">
<path d="M28.827 28.6092C33.4971 28.6092 37.04 24.9059 37.04 20.3977C36.7179 18.4656 36.0738 14.7623 30.9205 14.7623C25.4451 14.7623 23.2402 21.8568 19.0036 27.4821C18.6815 30.3803 15.9438 32.7954 12.562 33.2785C13.3672 34.0835 15.1386 34.5665 17.3932 34.5665C21.4192 34.5665 26.2503 33.4395 28.827 30.8633C25.4451 30.8633 23.3516 28.7702 23.0296 25.711C24.6399 27.8041 26.5724 28.6092 28.827 28.6092Z" fill="#12ABDB"/>
<path d="M37.0391 20.0754C36.8781 14.9231 34.4625 10.5758 30.5975 7.03362C27.6988 4.45747 24.317 2.36434 20.6131 0.915251C20.291 0.754241 19.9689 0.754241 19.8079 0.593231C15.2988 5.74554 0 9.77079 0 20.8805C0 25.2277 2.73767 29.253 6.76366 30.8631C9.17926 31.8291 11.4338 31.8291 13.8494 31.0241C15.9429 30.38 17.7144 29.092 19.0027 27.4819C23.5118 22.4906 25.2832 14.7621 30.9196 14.7621C35.9118 14.7621 36.717 18.3043 37.0391 20.3974C37.0391 20.3974 37.0391 20.2364 37.0391 20.0754Z" fill="#0070AD"/>
</g>
<defs>
<clipPath id="clip0_2_2471">
<rect width="37.0391" height="34.1341" fill="white" transform="translate(0 0.432953)"/>
</clipPath>
</defs>
</svg>
