<svg version="1.2" xmlns="http://www.w3.org/2000/svg" viewBox="0 0 123 123" width="123" height="123">
	<title>green-checkmark-line-svg</title>
	<style>
		.s0 { fill: #178036 } 
	</style>
	<path id="Layer" fill-rule="evenodd" class="s0" d="m61.4 0c17 0 32.4 6.9 43.5 18 11.1 11.1 18 26.5 18 43.4 0 17-6.9 32.4-18 43.5-11.1 11.1-26.5 18-43.5 18-16.9 0-32.3-6.9-43.4-18-11.1-11.1-18-26.5-18-43.5 0-16.9 6.9-32.3 18-43.4 11.1-11.1 26.5-18 43.4-18zm35.5 26c-9.1-9.1-21.6-14.7-35.5-14.7-13.8 0-26.3 5.6-35.4 14.7-9.1 9.1-14.7 21.6-14.7 35.4 0 13.9 5.6 26.4 14.7 35.5 9.1 9.1 21.6 14.7 35.4 14.7 13.9 0 26.4-5.6 35.5-14.7 9.1-9.1 14.7-21.6 14.7-35.5 0-13.8-5.6-26.3-14.7-35.4zm-62.5 42q-0.4-0.5-0.8-1-0.3-0.5-0.5-1.1c-0.6-1.3-0.7-2.6-0.5-3.9 0.2-1.3 0.8-2.6 1.7-3.6l0.4-0.3c2.3-2.2 5.8-2.6 8.5-1q0.6 0.4 1.1 0.9c2 1.8 5.2 4.9 7.4 6.8l1.8 1.6 22.5-23.6q0.5-0.5 1.1-0.9 0.5-0.4 1.2-0.6 0.6-0.3 1.3-0.5 0.6-0.1 1.3-0.1 0.7 0 1.4 0.1 0.6 0.1 1.3 0.3 0.7 0.3 1.2 0.6 0.6 0.4 1.1 0.9l0.1 0.1q0.5 0.5 0.9 1 0.4 0.6 0.6 1.2 0.3 0.6 0.5 1.3 0.1 0.7 0.1 1.4v0.2q0 0.6-0.1 1.2-0.1 0.6-0.3 1.3-0.3 0.6-0.6 1.2-0.4 0.5-0.9 1l-27.2 28.6q-0.5 0.5-1 0.9-0.6 0.4-1.2 0.7-0.6 0.3-1.3 0.4-0.6 0.2-1.3 0.2h-0.2q-0.6 0-1.2-0.1h-0.1q-0.6-0.1-1.2-0.3-0.6-0.2-1.2-0.6h-0.1q-0.6-0.3-1-0.8h-0.1c-1.6-1.5-3.3-3-5-4.5-3-2.6-7.2-6.4-9.7-9z"/>
</svg>